<svg width="49" height="42" viewBox="0 0 49 42" fill="none" xmlns="http://www.w3.org/2000/svg">
<path d="M3.03728 19.3734C2.35819 21.1043 2.28852 23.0147 2.83976 24.7904C3.39099 26.5661 4.53027 28.1013 6.07014 29.1433C7.61001 30.1853 9.45871 30.672 11.3121 30.5235C13.1654 30.3749 14.913 29.5999 16.2672 28.3259C17.6214 27.0519 18.5016 25.3549 18.7629 23.514C19.0243 21.6732 18.6512 19.7982 17.705 18.1977C16.7589 16.5971 15.2961 15.3663 13.5573 14.7078C11.8185 14.0493 9.9074 14.0023 8.13837 14.5746C9.70654 12.2579 11.4708 10.5234 13.2924 9.35924C16.3574 7.39676 19.5948 7.02982 22.512 8.17551C22.8007 8.28889 23.1227 8.28294 23.407 8.15898C23.6913 8.03501 23.9147 7.80318 24.0281 7.51448C24.1414 7.22579 24.1355 6.90387 24.0115 6.61956C23.8876 6.33526 23.6557 6.11184 23.367 5.99846C19.6704 4.54668 15.6461 5.07449 12.0309 7.38876C8.43344 9.68989 5.24829 13.7436 3.03728 19.3734Z" fill="#671E4E"/>
<path d="M25.9601 28.3754C25.281 30.1062 25.2114 32.0167 25.7626 33.7924C26.3138 35.5681 27.4531 37.1032 28.993 38.1452C30.5329 39.1872 32.3816 39.674 34.2349 39.5254C36.0883 39.3769 37.8358 38.6018 39.19 37.3278C40.5442 36.0538 41.4244 34.3568 41.6858 32.516C41.9471 30.6751 41.574 28.8002 40.6279 27.1996C39.6817 25.5991 38.2189 24.3683 36.4802 23.7098C34.7414 23.0513 32.8303 23.0043 31.0612 23.5765C32.6294 21.2599 34.3936 19.5254 36.2153 18.3612C39.2802 16.3987 42.5176 16.0318 45.4349 17.1775C45.7236 17.2908 46.0455 17.2849 46.3298 17.1609C46.6141 17.037 46.8375 16.8051 46.9509 16.5164C47.0643 16.2277 47.0584 15.9058 46.9344 15.6215C46.8104 15.3372 46.5786 15.1138 46.2899 15.0004C42.5933 13.5486 38.569 14.0764 34.9538 16.3907C31.3563 18.6918 28.1711 22.7455 25.9601 28.3754Z" fill="#671E4E"/>
</svg>
