<svg width="28" height="28" viewBox="0 0 28 28" fill="none" xmlns="http://www.w3.org/2000/svg">
<g clip-path="url(#clip0_31_1132)">
<path d="M5.48846 0.0078125C2.47239 0.0078125 0.00390625 2.47624 0.00390625 5.49237V22.5119C0.00390625 25.528 2.47233 27.9956 5.48846 27.9956H22.508C25.5241 27.9956 27.9917 25.528 27.9917 22.5119V5.49237C27.9917 2.47629 25.5241 0.0078125 22.508 0.0078125H5.48846ZM6.86791 4.62636C8.31405 4.62636 9.20482 5.57572 9.23231 6.82366C9.23231 8.04404 8.314 9.02009 6.83994 9.02009H6.81281C5.39419 9.02009 4.47727 8.04409 4.47727 6.82366C4.47727 5.57575 5.42193 4.62636 6.86788 4.62636H6.86791ZM19.3301 10.459C22.1114 10.459 24.1963 12.2769 24.1963 16.1832V23.4758H19.9696V16.6722C19.9696 14.9625 19.3579 13.7961 17.8283 13.7961C16.6605 13.7961 15.9645 14.5823 15.6589 15.3417C15.5473 15.6134 15.5199 15.9929 15.5199 16.373V23.4758H11.2932C11.2932 23.4758 11.3486 11.9507 11.2932 10.7573H15.5207V12.5584C16.0824 11.6918 17.0871 10.459 19.3301 10.459V10.459ZM4.72658 10.7582H8.95327V23.4759H4.72658V10.7582Z" fill="#671E4E"/>
</g>
<defs>
<clipPath id="clip0_31_1132">
<rect width="28" height="28" fill="white"/>
</clipPath>
</defs>
</svg>
