<svg width="40" height="41" viewBox="0 0 40 41" fill="none" xmlns="http://www.w3.org/2000/svg">
<path fill-rule="evenodd" clip-rule="evenodd" d="M16.0918 6.16559C17.4517 6.60769 18.7616 7.19086 20.0001 7.90559C21.2387 7.19086 22.5486 6.60769 23.9085 6.16559C27.3151 5.08892 30.7085 5.28059 32.9635 7.53559C35.2185 9.79059 35.4101 13.1856 34.3335 16.5906C33.8914 17.9505 33.3082 19.2604 32.5935 20.4989C33.3535 21.8373 33.9351 23.1489 34.3335 24.4073C35.4101 27.8123 35.2185 31.2073 32.9635 33.4623C30.7085 35.7173 27.3135 35.9089 23.9085 34.8323C22.5486 34.3902 21.2387 33.807 20.0001 33.0923C18.7616 33.807 17.4517 34.3902 16.0918 34.8323C12.6868 35.9073 9.29181 35.7173 7.03681 33.4623C4.78181 31.2073 4.59181 27.8123 5.66681 24.4073C6.06514 23.1473 6.64681 21.8373 7.40681 20.4989C6.69209 19.2604 6.10891 17.9505 5.66681 16.5906C4.59181 13.1839 4.78348 9.79059 7.03681 7.53559C9.29181 5.28059 12.6868 5.08892 16.0918 6.16559ZM30.4835 23.6806C29.5001 24.9773 28.3601 26.2806 27.0718 27.5706C25.8534 28.7935 24.5538 29.9328 23.1818 30.9806C23.7807 31.2539 24.3579 31.4784 24.9135 31.6539C27.7435 32.5473 29.6068 32.1039 30.6068 31.1039C31.6068 30.1056 32.0501 28.2406 31.1568 25.4123C30.9684 24.8211 30.7436 24.2422 30.4835 23.6789V23.6806ZM9.51681 23.6806C9.25736 24.2434 9.03305 24.8217 8.84514 25.4123C7.95181 28.2423 8.39514 30.1056 9.39514 31.1056C10.3935 32.1056 12.2585 32.5473 15.0868 31.6539C15.6424 31.4784 16.2201 31.2539 16.8201 30.9806C15.4482 29.9328 14.1485 28.7935 12.9301 27.5706C11.7066 26.3522 10.5651 25.0526 9.51681 23.6806ZM20.0001 11.8323C18.3105 13.0019 16.7327 14.3253 15.2868 15.7856C13.8266 17.2315 12.5031 18.8093 11.3335 20.4989C12.5021 22.1884 13.8244 23.7662 15.2835 25.2123C16.8885 26.8173 18.4768 28.1289 20.0001 29.1656C21.6898 27.9959 23.2676 26.6725 24.7135 25.2123C26.1731 23.7663 27.496 22.1885 28.6651 20.4989C27.4988 18.8077 26.1764 17.2297 24.7151 15.7856C23.2687 14.3253 21.6903 13.0018 20.0001 11.8323ZM20.0001 17.9989C20.6632 17.9989 21.2991 18.2623 21.7679 18.7312C22.2368 19.2 22.5001 19.8359 22.5001 20.4989C22.5001 21.162 22.2368 21.7978 21.7679 22.2667C21.2991 22.7355 20.6632 22.9989 20.0001 22.9989C19.3371 22.9989 18.7012 22.7355 18.2324 22.2667C17.7635 21.7978 17.5001 21.162 17.5001 20.4989C17.5001 19.8359 17.7635 19.2 18.2324 18.7312C18.7012 18.2623 19.3371 17.9989 20.0001 17.9989ZM9.39348 9.89225C8.39348 10.8923 7.95181 12.7556 8.84514 15.5856C9.0207 16.1411 9.24514 16.7189 9.51848 17.3189C10.5018 16.0189 11.6401 14.7173 12.9301 13.4273C14.148 12.2043 15.4471 11.0651 16.8185 10.0173C16.2557 9.75724 15.6774 9.53237 15.0868 9.34392C12.2585 8.45059 10.3935 8.89392 9.39348 9.89225ZM24.9135 9.34392C24.3579 9.51948 23.7807 9.74392 23.1818 10.0173C24.4785 11.0006 25.7818 12.1389 27.0718 13.4273C28.2953 14.6456 29.4352 15.9452 30.4835 17.3173C30.7568 16.7184 30.9807 16.1411 31.1551 15.5856C32.0501 12.7556 31.6068 10.8923 30.6068 9.89225C29.6068 8.89225 27.7435 8.45059 24.9135 9.34392Z" fill="white"/>
</svg>
