<svg width="37" height="29" viewBox="0 0 37 29" fill="none" xmlns="http://www.w3.org/2000/svg">
<path d="M34.2112 28.5013V22.7425H30.8765C28.1168 22.7425 26.7369 21.3604 26.7369 18.5962V14.9105H28.3468C30.5699 14.9105 32.448 14.2195 33.9812 12.8373C35.4378 11.4552 36.166 9.72759 36.166 7.65442C36.166 5.42768 35.4378 3.62325 33.9812 2.24114C32.448 0.859026 30.5699 0.167969 28.3468 0.167969C26.1236 0.167969 24.2838 0.897417 22.8273 2.35631C21.3707 3.81521 20.6425 5.65803 20.6425 7.88477V18.5962C20.6425 25.1996 23.9388 28.5013 30.5315 28.5013H34.2112ZM14.3181 28.5013V22.7425H10.9834C8.22365 22.7425 6.84378 21.3604 6.84378 18.5962V14.9105H8.45363C10.6768 14.9105 12.5549 14.2195 14.0881 12.8373C15.5446 11.4552 16.2729 9.72759 16.2729 7.65442C16.2729 5.42768 15.5446 3.62325 14.0881 2.24114C12.5549 0.859026 10.6768 0.167969 8.45363 0.167969C6.2305 0.167969 4.39068 0.897417 2.93415 2.35631C1.47762 3.81521 0.749352 5.65803 0.749352 7.88477V18.5962C0.749352 25.1996 4.04571 28.5013 10.6384 28.5013H14.3181Z" fill="#671E4E"/>
</svg>
