<svg width="60" height="60" viewBox="0 0 60 60" fill="none" xmlns="http://www.w3.org/2000/svg">
<rect width="60" height="60" rx="30" fill="white"/>
<path d="M30 45C21.7157 45 15 38.2842 15 30C15 21.7157 21.7157 15 30 15C38.2842 15 45 21.7157 45 30C45 38.2842 38.2842 45 30 45ZM30 42C36.6275 42 42 36.6275 42 30C42 23.3726 36.6275 18 30 18C23.3726 18 18 23.3726 18 30C18 36.6275 23.3726 42 30 42ZM27.9328 24.6219L35.2512 29.5008C35.5269 29.6846 35.6015 30.0571 35.4176 30.3328C35.3736 30.3987 35.3171 30.4552 35.2512 30.4992L27.9328 35.3781C27.6571 35.562 27.2845 35.4874 27.1008 35.2117C27.0351 35.1132 27 34.9974 27 34.8789V25.1211C27 24.7897 27.2686 24.5211 27.6 24.5211C27.7185 24.5211 27.8343 24.5562 27.9328 24.6219Z" fill="#1D0013"/>
</svg>
