<svg width="32" height="32" viewBox="0 0 32 32" fill="none" xmlns="http://www.w3.org/2000/svg">
<path d="M16.0013 2.66797C23.3651 2.66797 29.3347 8.6375 29.3347 16.0013C29.3347 23.365 23.3651 29.3346 16.0013 29.3346C13.5561 29.3346 11.2647 28.6765 9.29448 27.5276L2.67354 29.3346L4.47616 22.71C3.32658 20.7394 2.66797 18.4473 2.66797 16.0013C2.66797 8.6375 8.6375 2.66797 16.0013 2.66797ZM11.1898 9.74574C11.0172 9.75786 10.8481 9.8 10.6941 9.87878C10.5786 9.93789 10.4713 10.0233 10.3028 10.1825C10.1436 10.3327 10.0514 10.4639 9.95425 10.5905C9.46132 11.2322 9.19638 12.02 9.2013 12.8293C9.20398 13.4834 9.3739 14.1192 9.64225 14.7128C10.1864 15.9165 11.0838 17.189 12.2692 18.3692C12.554 18.6526 12.833 18.9392 13.1338 19.204C14.6051 20.4994 16.3584 21.4336 18.2543 21.9322C18.2543 21.9322 19.0009 22.0469 19.0119 22.0476C19.2592 22.0609 19.5061 22.043 19.7537 22.0304C20.1421 22.0104 20.5213 21.9053 20.8645 21.7225C21.0852 21.605 21.1896 21.5466 21.3748 21.4298C21.3748 21.4298 21.4316 21.3914 21.5412 21.3098C21.7212 21.1757 21.8324 21.0813 21.9821 20.9258C22.0925 20.8112 22.1875 20.6757 22.2608 20.523C22.3651 20.3054 22.47 19.8901 22.5117 19.5452C22.5436 19.2817 22.534 19.1377 22.5305 19.0485C22.5248 18.905 22.4063 18.7574 22.2764 18.6948L21.5011 18.3462C21.5011 18.3462 20.3417 17.8417 19.6327 17.5182C19.5588 17.4845 19.478 17.4689 19.3968 17.464C19.2189 17.453 19.0196 17.4994 18.8928 17.633C18.8861 17.6304 18.7979 17.7066 17.8332 18.8753C17.78 18.9389 17.6553 19.0772 17.4397 19.0642C17.4072 19.062 17.3748 19.0573 17.3432 19.049C17.2559 19.026 17.1708 18.9956 17.0876 18.9604C16.9227 18.8904 16.8648 18.8638 16.7521 18.8153C15.9824 18.479 15.276 18.0292 14.6516 17.4786C14.4841 17.3312 14.3284 17.1724 14.1679 17.0168C13.6076 16.4737 13.1489 15.8961 12.8077 15.3264C12.7891 15.2953 12.7604 15.2504 12.7294 15.2001C12.6736 15.1093 12.612 15.0013 12.5927 14.9272C12.5432 14.731 12.6746 14.5734 12.6746 14.5734C12.6746 14.5734 12.9992 14.2186 13.15 14.0257C13.295 13.84 13.4203 13.6584 13.5 13.5289C13.6571 13.2764 13.7068 13.0155 13.6243 12.8141C13.2502 11.9022 12.8642 10.9951 12.4665 10.0932C12.388 9.91524 12.1545 9.78592 11.9421 9.7614C11.8702 9.75309 11.7983 9.74474 11.7261 9.74C11.5474 9.73128 11.3683 9.7332 11.1898 9.74574Z" fill="#671E4E"/>
</svg>
